<!-- Generator: Adobe Illustrator 24.0.0, SVG Export Plug-In  -->
<svg version="1.1" xmlns="http://www.w3.org/2000/svg" xmlns:xlink="http://www.w3.org/1999/xlink" x="0px" y="0px" width="28.37px"
	 height="26.6px" viewBox="0 0 28.37 26.6" style="enable-background:new 0 0 28.37 26.6;" xml:space="preserve">
<style type="text/css">
	.st0{fill:#FFFFFF;}
</style>
<defs>
</defs>
<path class="st0" d="M16.1,8.87c-1.12,0-5.92,0.11-9.01,4.76V8.87c0-2.93-2.39-5.32-5.32-5.32C0.79,3.55,0,4.34,0,5.32
	s0.79,1.77,1.77,1.77c0.98,0,1.77,0.8,1.77,1.77v14.19c0,1.96,1.59,3.55,3.55,3.55h9.75c0.49,0,0.89-0.4,0.89-0.89v-0.89
	c0-0.98-0.79-1.77-1.77-1.77h-1.77l7.09-5.32v7.98c0,0.49,0.4,0.89,0.89,0.89h1.77c0.49,0,0.89-0.4,0.89-0.89V14.29
	c-0.57,0.15-1.16,0.25-1.77,0.25C19.63,14.54,16.76,12.1,16.1,8.87z M24.82,3.55h-3.55L17.73,0v7.45c0,2.94,2.38,5.32,5.32,5.32
	s5.32-2.38,5.32-5.32V0L24.82,3.55z M20.83,7.98c-0.49,0-0.89-0.4-0.89-0.89s0.4-0.89,0.89-0.89c0.49,0,0.89,0.4,0.89,0.89
	S21.32,7.98,20.83,7.98z M25.27,7.98c-0.49,0-0.89-0.4-0.89-0.89s0.4-0.89,0.89-0.89s0.89,0.4,0.89,0.89S25.76,7.98,25.27,7.98z"/>
</svg>
